# xmcd
#
# Track frame offsets:
#	150
#	10332
#	33445
#	47166
#	66269
#	78625
#	91424
#	107908
#	125724
#	142623
#	152530
#	169700
#	188321
#	199940
#	212356
#	223224
#	238752
#	258128
#	272730
#	287290
#
# Disc length: 4040 seconds
#
# Revision: 0
# Processed by: cddbd v1.5.2PL0 Copyright (c) Steve Scherf et al.
# Submitted via: EasyCDDAExtractor 10.0.2.1
#
DISCID=160fc614
DTITLE=Socorro Telles - Voz e Violão Vol. 2
DYEAR=2007
DGENRE=Gospel
TTITLE0=Logo de manhã
TTITLE1=Quero adorar
TTITLE2=Usa-Me
TTITLE3=Deixei
TTITLE4=Erga os Olhos
TTITLE5=Enche-Me Espírito
TTITLE6=O Poder do Amor
TTITLE7=Meu Melhor
TTITLE8=Quero Andar em Tua Presença
TTITLE9=Deus É o Meu Refúgio
TTITLE10=Quando o Vale É Escuro
TTITLE11=Pot-Pourri
TTITLE12=Por Que Desistir?
TTITLE13=Com Laçoes de Amor
TTITLE14=Não Tenhas Sobre Ti
TTITLE15=Pai de Amor
TTITLE16=Em Adoração
TTITLE17=Deus Forte
TTITLE18=Não Temas
TTITLE19=Mais Que Uma Voz
EXTD=
EXTT0=
EXTT1=
EXTT2=
EXTT3=
EXTT4=
EXTT5=
EXTT6=
EXTT7=
EXTT8=
EXTT9=
EXTT10=
EXTT11=
EXTT12=
EXTT13=
EXTT14=
EXTT15=
EXTT16=
EXTT17=
EXTT18=
EXTT19=
PLAYORDER=
